# Blender v2.78 (sub 0) OBJ File: 'target.blend'
# www.blender.org
mtllib target.mtl
o target
v -0.049914 -0.050000 -0.712498
v -0.049914 0.050000 -0.712498
v 0.048103 -0.050000 -0.712319
v 0.048103 0.050000 -0.712319
v -0.047500 -0.049998 0.002121
v -0.047500 0.050002 0.002121
v 0.047500 -0.049998 0.002121
v 0.047500 0.050002 0.002121
v 0.497681 -0.050000 -1.258103
v 0.497681 0.050000 -1.258103
v 0.497502 -0.050000 -1.160086
v 0.497502 0.050000 -1.160086
v 0.478205 -0.050000 -1.063987
v 0.478205 0.050000 -1.063987
v 0.440531 -0.050000 -0.973500
v 0.440531 0.050000 -0.973500
v 0.385927 -0.050000 -0.892101
v 0.385927 0.050000 -0.892101
v 0.316493 -0.050000 -0.822918
v 0.316493 0.050000 -0.822918
v 0.234895 -0.050000 -0.768611
v 0.234895 0.050000 -0.768611
v -0.146013 -0.050000 -0.731795
v -0.146013 0.050000 -0.731795
v -0.236500 -0.050000 -0.769469
v -0.236500 0.050000 -0.769469
v -0.317900 -0.050000 -0.824073
v -0.317900 0.050000 -0.824073
v -0.387082 -0.050000 -0.893507
v -0.387082 0.050000 -0.893507
v -0.441389 -0.050000 -0.975104
v -0.441389 0.050000 -0.975104
v -0.478734 -0.050000 -1.065729
v -0.478734 0.050000 -1.065729
v -0.497681 -0.050000 -1.161897
v -0.497681 0.050000 -1.161897
v -0.497503 -0.050000 -1.259914
v -0.497503 0.050000 -1.259914
v -0.478205 -0.050000 -1.356013
v -0.478205 0.050000 -1.356013
v -0.440531 -0.050000 -1.446501
v -0.440531 0.050000 -1.446501
v -0.385928 -0.050000 -1.527900
v -0.385928 0.050000 -1.527900
v -0.316493 -0.050000 -1.597082
v -0.316493 0.050000 -1.597082
v -0.234896 -0.050000 -1.651389
v -0.234896 0.050000 -1.651389
v -0.144271 -0.050000 -1.688734
v -0.144271 0.050000 -1.688734
v -0.048103 -0.050000 -1.707681
v -0.048103 0.050000 -1.707681
v 0.049914 -0.050000 -1.707502
v 0.049914 0.050000 -1.707502
v 0.146013 -0.050000 -1.688205
v 0.146013 0.050000 -1.688205
v 0.236501 -0.050000 -1.650531
v 0.236501 0.050000 -1.650531
v 0.317900 -0.050000 -1.595927
v 0.317900 0.050000 -1.595927
v 0.387082 -0.050000 -1.526493
v 0.387082 0.050000 -1.526493
v 0.441389 -0.050000 -1.444895
v 0.441389 0.050000 -1.444895
v 0.478734 -0.050000 -1.354271
v 0.478734 0.050000 -1.354271
v 0.497681 -0.050000 -1.258103
v 0.497502 -0.050000 -1.160086
v 0.497502 0.050000 -1.160086
v 0.497681 0.050000 -1.258103
v 0.478205 -0.050000 -1.063987
v 0.478205 0.050000 -1.063987
v 0.440531 -0.050000 -0.973500
v 0.440531 0.050000 -0.973500
v 0.385927 -0.050000 -0.892101
v 0.385927 0.050000 -0.892101
v 0.316493 -0.050000 -0.822918
v 0.316493 0.050000 -0.822918
v 0.234895 -0.050000 -0.768611
v 0.234895 0.050000 -0.768611
v 0.144271 -0.050000 -0.731267
v 0.144271 -0.050000 -0.731267
v 0.144271 0.050000 -0.731267
v 0.144271 0.050000 -0.731267
v 0.048103 0.050000 -0.712319
v 0.048103 -0.050000 -0.712319
v -0.049914 -0.050000 -0.712498
v -0.049914 0.050000 -0.712498
v -0.146013 -0.050000 -0.731795
v -0.146013 0.050000 -0.731795
v -0.236500 -0.050000 -0.769469
v -0.236500 0.050000 -0.769469
v -0.317900 -0.050000 -0.824073
v -0.317900 0.050000 -0.824073
v -0.387082 -0.050000 -0.893507
v -0.387082 0.050000 -0.893507
v -0.441389 -0.050000 -0.975104
v -0.441389 0.050000 -0.975104
v -0.478734 -0.050000 -1.065729
v -0.478734 0.050000 -1.065729
v -0.497681 -0.050000 -1.161897
v -0.497681 0.050000 -1.161897
v -0.497503 -0.050000 -1.259914
v -0.497503 0.050000 -1.259914
v -0.478205 -0.050000 -1.356013
v -0.478205 0.050000 -1.356013
v -0.440531 -0.050000 -1.446501
v -0.440531 0.050000 -1.446501
v -0.385928 -0.050000 -1.527900
v -0.385928 0.050000 -1.527900
v -0.316493 -0.050000 -1.597082
v -0.316493 0.050000 -1.597082
v -0.234896 -0.050000 -1.651389
v -0.234896 0.050000 -1.651389
v -0.144271 -0.050000 -1.688734
v -0.144271 0.050000 -1.688734
v -0.048103 -0.050000 -1.707681
v -0.048103 0.050000 -1.707681
v 0.049914 -0.050000 -1.707502
v 0.049914 0.050000 -1.707502
v 0.146013 -0.050000 -1.688205
v 0.146013 0.050000 -1.688205
v 0.236501 -0.050000 -1.650531
v 0.236501 0.050000 -1.650531
v 0.317900 -0.050000 -1.595927
v 0.317900 0.050000 -1.595927
v 0.387082 -0.050000 -1.526493
v 0.387082 0.050000 -1.526493
v 0.441389 -0.050000 -1.444895
v 0.441389 0.050000 -1.444895
v 0.478734 -0.050000 -1.354271
v 0.478734 0.050000 -1.354271
vt 0.9453 0.3672
vt 0.9907 0.4136
vt 0.9453 0.4136
vt 0.4748 0.9867
vt 0.5723 0.8889
vt 0.5723 0.9867
vt 0.8187 0.6395
vt 0.9113 0.7370
vt 0.8187 0.7370
vt 0.9453 0.3068
vt 0.9916 0.3533
vt 0.9453 0.3533
vt 0.6938 0.7373
vt 0.7870 0.6395
vt 0.7894 0.7373
vt 0.7894 0.8644
vt 0.6962 0.7666
vt 0.7888 0.7666
vt 0.9907 0.3672
vt 0.4748 0.8889
vt 0.9113 0.6395
vt 0.9916 0.3068
vt 0.6944 0.6395
vt 0.6938 0.8644
vt 0.8314 0.9906
vt 0.8187 0.8930
vt 0.8314 0.8930
vt 0.6613 0.6683
vt 0.6387 0.5708
vt 0.6613 0.5708
vt 0.6387 0.6683
vt 0.6016 0.5708
vt 0.4748 0.8596
vt 0.5723 0.8064
vt 0.5723 0.8596
vt 0.4748 0.8064
vt 0.5723 0.7387
vt 0.4748 0.7387
vt 0.5723 0.6591
vt 0.4748 0.6591
vt 0.5723 0.5708
vt 0.9453 0.2928
vt 0.9916 0.2474
vt 0.9916 0.2928
vt 0.9453 0.2474
vt 0.9916 0.2028
vt 0.9453 0.2028
vt 0.9916 0.1609
vt 0.9453 0.1609
vt 0.9916 0.1231
vt 0.9453 0.1231
vt 0.9916 0.0910
vt 0.9453 0.0910
vt 0.9916 0.0658
vt 0.6607 0.7951
vt 0.6239 0.6976
vt 0.6607 0.6976
vt 0.6239 0.7951
vt 0.6016 0.6976
vt 0.8607 0.8930
vt 0.8734 0.9906
vt 0.8607 0.9906
vt 0.8784 0.8638
vt 0.8558 0.7662
vt 0.8784 0.7662
vt 0.8558 0.8638
vt 0.8187 0.7662
vt 0.9287 0.9931
vt 0.9929 0.9581
vt 0.9929 0.9931
vt 0.9287 0.9581
vt 0.9929 0.9136
vt 0.9287 0.9136
vt 0.9929 0.8612
vt 0.9287 0.8612
vt 0.9929 0.8031
vt 0.9287 0.8031
vt 0.9929 0.7414
vt 0.9287 0.7414
vt 0.9929 0.6786
vt 0.9287 0.6786
vt 0.9929 0.6169
vt 0.9287 0.6169
vt 0.9929 0.5589
vt 0.9287 0.5589
vt 0.9929 0.5067
vt 0.9287 0.5067
vt 0.9929 0.4623
vt 0.9287 0.4623
vt 0.9929 0.4275
vt 0.1593 0.3172
vt 0.4417 0.4700
vt 0.0084 0.6044
vt 0.6607 0.9219
vt 0.6239 0.8243
vt 0.6607 0.8243
vt 0.6239 0.9219
vt 0.6016 0.8243
vt 0.7440 0.4490
vt 0.4626 0.2955
vt 0.8944 0.1631
vt 0.4748 0.5708
vt 0.5723 0.5708
vt 0.8187 0.9906
vt 0.6016 0.6683
vt 0.9453 0.0658
vt 0.6016 0.7951
vt 0.8734 0.8930
vt 0.8187 0.8638
vt 0.9287 0.4275
vt 0.2908 0.7572
vt 0.2472 0.7661
vt 0.2029 0.7662
vt 0.1593 0.7575
vt 0.1183 0.7403
vt 0.0814 0.7153
vt 0.0500 0.6835
vt 0.0254 0.6460
vt -0.0003 0.5602
vt -0.0003 0.5151
vt 0.0084 0.4708
vt 0.0254 0.4291
vt 0.0500 0.3916
vt 0.0814 0.3596
vt 0.1183 0.3345
vt 0.2029 0.3083
vt 0.2472 0.3082
vt 0.2908 0.3169
vt 0.3318 0.3341
vt 0.3687 0.3591
vt 0.4001 0.3909
vt 0.4247 0.4284
vt 0.4504 0.5142
vt 0.4504 0.5593
vt 0.4417 0.6036
vt 0.4247 0.6453
vt 0.4001 0.6828
vt 0.3687 0.7148
vt 0.3318 0.7399
vt 0.6016 0.9219
vt 0.6130 0.0097
vt 0.6564 0.0010
vt 0.7006 0.0010
vt 0.7440 0.0099
vt 0.7848 0.0272
vt 0.8216 0.0522
vt 0.8529 0.0841
vt 0.8775 0.1215
vt 0.9030 0.2072
vt 0.8775 0.3378
vt 0.9030 0.2522
vt 0.8944 0.2963
vt 0.8529 0.3752
vt 0.8216 0.4069
vt 0.7848 0.4318
vt 0.7006 0.4577
vt 0.6564 0.4576
vt 0.6130 0.4487
vt 0.5721 0.4314
vt 0.5353 0.4064
vt 0.5041 0.3745
vt 0.4795 0.3371
vt 0.4539 0.2514
vt 0.4539 0.2064
vt 0.4626 0.1623
vt 0.4795 0.1208
vt 0.5041 0.0835
vt 0.5353 0.0517
vt 0.5721 0.0268
vt 0.4748 0.5708
vn 0.0018 0.0000 -1.0000
vn 1.0000 0.0000 0.0008
vn -0.0000 0.0000 1.0000
vn -1.0000 0.0000 0.0034
vn -0.0000 -1.0000 0.0000
vn 0.0000 1.0000 -0.0000
vn 0.9954 0.0000 -0.0962
vn 0.9950 0.0000 0.0998
vn 0.9564 0.0000 0.2920
vn 0.8810 0.0000 0.4730
vn 0.7718 0.0000 0.6358
vn 0.6330 0.0000 0.7742
vn 0.4698 0.0000 0.8827
vn 0.2885 0.0000 0.9575
vn 0.6482 0.5435 0.5334
vn -0.0998 0.0000 0.9950
vn 0.6482 -0.5435 0.5334
vn -0.2920 0.0000 0.9564
vn -0.4730 0.0000 0.8810
vn -0.6358 0.0000 0.7718
vn -0.7742 0.0000 0.6330
vn -0.7741 0.0000 0.6330
vn -0.8827 0.0000 0.4698
vn -0.9575 0.0000 0.2885
vn -0.9954 0.0000 0.0962
vn -0.9950 0.0000 -0.0998
vn -0.9564 0.0000 -0.2920
vn -0.8810 0.0000 -0.4730
vn -0.7718 0.0000 -0.6358
vn -0.6330 0.0000 -0.7742
vn -0.4698 0.0000 -0.8827
vn -0.4698 0.0000 -0.8828
vn -0.2885 0.0000 -0.9575
vn -0.0962 0.0000 -0.9954
vn 0.0998 0.0000 -0.9950
vn 0.2920 0.0000 -0.9564
vn 0.4730 0.0000 -0.8810
vn 0.6358 0.0000 -0.7718
vn 0.7742 0.0000 -0.6330
vn 0.8828 0.0000 -0.4698
vn 0.8827 0.0000 -0.4698
vn 0.9575 0.0000 -0.2885
vn -0.3120 0.8975 -0.3115
vn -0.3120 -0.8975 -0.3115
usemtl Material
s off
f 2/1/1 3/2/1 1/3/1
f 4/4/2 7/5/2 3/6/2
f 8/7/3 5/8/3 7/9/3
f 5/10/4 2/11/4 1/12/4
f 3/13/5 5/14/5 1/15/5
f 4/16/6 6/17/6 8/18/6
f 2/1/1 4/19/1 3/2/1
f 4/4/2 8/20/2 7/5/2
f 8/7/3 6/21/3 5/8/3
f 5/10/4 6/22/4 2/11/4
f 3/13/5 7/23/5 5/14/5
f 4/16/6 2/24/6 6/17/6
s 1
f 70/25/7 68/26/8 67/27/7
f 69/28/8 71/29/9 68/30/8
f 72/31/9 73/32/10 71/29/9
f 74/33/10 75/34/11 73/35/10
f 76/36/11 77/37/12 75/34/11
f 78/38/12 79/39/13 77/37/12
f 80/40/13 81/41/14 79/39/13
f 4/42/15 87/43/16 3/44/17
f 88/45/16 89/46/18 87/43/16
f 90/47/18 91/48/19 89/46/18
f 92/49/19 93/50/20 91/48/19
f 94/51/20 95/52/21 93/50/20
f 96/53/22 97/54/23 95/52/21
f 98/55/23 99/56/24 97/57/23
f 100/58/24 101/59/25 99/56/24
f 102/60/25 103/61/26 101/62/25
f 104/63/26 105/64/27 103/65/26
f 106/66/27 107/67/28 105/64/27
f 108/68/28 109/69/29 107/70/28
f 110/71/29 111/72/30 109/69/29
f 112/73/30 113/74/31 111/72/30
f 114/75/32 115/76/33 113/74/31
f 116/77/33 117/78/34 115/76/33
f 118/79/34 119/80/35 117/78/34
f 120/81/35 121/82/36 119/80/35
f 122/83/36 123/84/37 121/82/36
f 124/85/37 125/86/38 123/84/37
f 126/87/38 127/88/39 125/86/38
f 128/89/39 129/90/40 127/88/39
f 40/91/6 24/92/6 56/93/6
f 130/94/41 131/95/42 129/96/40
f 66/97/42 67/98/7 131/95/42
f 33/99/5 49/100/5 82/101/5
f 83/102/14 3/103/17 81/41/14
f 70/25/7 69/104/8 68/26/8
f 69/28/8 72/31/9 71/29/9
f 72/31/9 74/105/10 73/32/10
f 74/33/10 76/36/11 75/34/11
f 76/36/11 78/38/12 77/37/12
f 78/38/12 80/40/13 79/39/13
f 80/40/13 83/102/14 81/41/14
f 4/42/15 88/45/16 87/43/16
f 88/45/16 90/47/18 89/46/18
f 90/47/18 92/49/19 91/48/19
f 92/49/19 94/51/20 93/50/20
f 94/51/20 96/53/22 95/52/21
f 96/53/22 98/106/23 97/54/23
f 98/55/23 100/58/24 99/56/24
f 100/58/24 102/107/25 101/59/25
f 102/60/25 104/108/26 103/61/26
f 104/63/26 106/66/27 105/64/27
f 106/66/27 108/109/28 107/67/28
f 108/68/28 110/71/29 109/69/29
f 110/71/29 112/73/30 111/72/30
f 112/73/30 114/75/32 113/74/31
f 114/75/32 116/77/33 115/76/33
f 116/77/33 118/79/34 117/78/34
f 118/79/34 120/81/35 119/80/35
f 120/81/35 122/83/36 121/82/36
f 122/83/36 124/85/37 123/84/37
f 124/85/37 126/87/38 125/86/38
f 126/87/38 128/89/39 127/88/39
f 128/89/39 130/110/41 129/90/40
f 14/111/6 12/112/6 10/113/6
f 10/113/6 132/114/6 14/111/6
f 64/115/6 62/116/6 60/117/6
f 60/117/6 58/118/6 56/93/6
f 56/93/6 54/119/6 52/120/6
f 52/120/6 50/121/6 56/93/6
f 48/122/6 46/123/6 40/91/6
f 44/124/6 42/125/6 40/91/6
f 40/91/6 38/126/6 36/127/6
f 36/127/6 34/128/6 32/129/6
f 32/129/6 30/130/6 28/131/6
f 28/131/6 26/132/6 32/129/6
f 24/92/6 2/133/43 85/134/6
f 85/134/6 84/135/6 22/136/6
f 22/136/6 20/137/6 18/138/6
f 18/138/6 16/139/6 22/136/6
f 14/111/6 132/114/6 64/115/6
f 64/115/6 60/117/6 14/111/6
f 56/93/6 50/121/6 48/122/6
f 46/123/6 44/124/6 40/91/6
f 40/91/6 36/127/6 24/92/6
f 32/129/6 26/132/6 24/92/6
f 24/92/6 85/134/6 22/136/6
f 22/136/6 16/139/6 14/111/6
f 14/111/6 60/117/6 56/93/6
f 56/93/6 48/122/6 40/91/6
f 36/127/6 32/129/6 24/92/6
f 24/92/6 22/136/6 14/111/6
f 14/111/6 56/93/6 24/92/6
f 130/94/41 66/97/42 131/95/42
f 66/97/42 70/140/7 67/98/7
f 65/141/5 9/142/5 11/143/5
f 11/143/5 13/144/5 15/145/5
f 15/145/5 17/146/5 19/147/5
f 19/147/5 21/148/5 15/145/5
f 82/101/5 86/149/5 25/150/5
f 1/151/44 23/152/5 25/150/5
f 25/150/5 27/153/5 29/154/5
f 29/154/5 31/155/5 33/99/5
f 33/99/5 35/156/5 37/157/5
f 37/157/5 39/158/5 41/159/5
f 41/159/5 43/160/5 45/161/5
f 45/161/5 47/162/5 49/100/5
f 49/100/5 51/163/5 53/164/5
f 53/164/5 55/165/5 49/100/5
f 57/166/5 59/167/5 65/141/5
f 61/168/5 63/169/5 65/141/5
f 65/141/5 11/143/5 82/101/5
f 15/145/5 21/148/5 82/101/5
f 86/149/5 1/151/44 25/150/5
f 25/150/5 29/154/5 33/99/5
f 33/99/5 37/157/5 49/100/5
f 41/159/5 45/161/5 49/100/5
f 49/100/5 55/165/5 57/166/5
f 59/167/5 61/168/5 65/141/5
f 11/143/5 15/145/5 82/101/5
f 82/101/5 25/150/5 33/99/5
f 37/157/5 41/159/5 49/100/5
f 49/100/5 57/166/5 65/141/5
f 65/141/5 82/101/5 49/100/5
f 83/102/14 4/170/15 3/103/17
